<svg width="1440" height="900" viewBox="0 0 1440 900" fill="none" xmlns="http://www.w3.org/2000/svg">
<mask id="mask0" mask-type="alpha" maskUnits="userSpaceOnUse" x="0" y="0" width="1440" height="900">
<rect width="1440" height="900" fill="#C4C4C4"/>
</mask>
<g mask="url(#mask0)">
<rect width="1440" height="900" fill="url(#paint0_linear)"/>
<ellipse cx="218" cy="83" rx="346" ry="196" fill="url(#paint1_linear)"/>
<ellipse cx="1353.5" cy="22.5" rx="189.5" ry="162.5" fill="url(#paint2_linear)"/>
<path d="M779 0.5C779 58.4498 752.029 114.026 704.019 155.003C656.01 195.98 590.895 219 523 219C455.105 219 389.99 195.98 341.981 155.003C293.971 114.026 267 58.4498 267 0.500033L523 0.5H779Z" fill="url(#paint3_linear)"/>
</g>
<defs>
<linearGradient id="paint0_linear" x1="775" y1="-426.5" x2="720" y2="900" gradientUnits="userSpaceOnUse">
<stop stop-color="#569EFF" stop-opacity="0"/>
<stop offset="0.936398" stop-color="#03325E"/>
</linearGradient>
<linearGradient id="paint1_linear" x1="218" y1="-113" x2="218" y2="279" gradientUnits="userSpaceOnUse">
<stop offset="0.385417" stop-color="white"/>
<stop offset="1" stop-color="white" stop-opacity="0"/>
</linearGradient>
<linearGradient id="paint2_linear" x1="1353.5" y1="-140" x2="1353.5" y2="185" gradientUnits="userSpaceOnUse">
<stop offset="0.385417" stop-color="white"/>
<stop offset="1" stop-color="white" stop-opacity="0"/>
</linearGradient>
<linearGradient id="paint3_linear" x1="523" y1="-218" x2="523" y2="219" gradientUnits="userSpaceOnUse">
<stop offset="0.385417" stop-color="white"/>
<stop offset="1" stop-color="white" stop-opacity="0"/>
</linearGradient>
</defs>
</svg>
